# xmcd
#
# Track frame offsets: 
#        150
#        18671
#        37337
#        58640
#        77296
#        85674
#        111990
#        133073
#        151005
#        167435
#        181940
#        203441
#        218984
#        251266
#
# Disc length: 4032 seconds
#
# Revision: 0
# Processed by: cddbd v1.5.2PL0 Copyright (c) Steve Scherf et al.
# Submitted via: ExactAudioCopy v0.99pb3
#
DISCID=ac0fbe0e
DTITLE=Rocky Zharp and The Blues Crackers - Cracklin' The Blues
DYEAR=1999
DGENRE=Blues
TTITLE0=Old Blues Cracker
TTITLE1=Scars
TTITLE2=Suspicious Minds
TTITLE3=Jimmy
TTITLE4=Crackin' The Blues
TTITLE5=Can't Wait To See You
TTITLE6=Do The Blues Cracker
TTITLE7=Somethin' Going Down (Ode To Bill Clinton)
TTITLE8=Licks For Jeanie
TTITLE9=I Don't Want You No More
TTITLE10=Happiness
TTITLE11=Eye Of tHe Storm
TTITLE12=Money
TTITLE13=MP3 Tracks (30)
EXTD=
EXTT0=
EXTT1=
EXTT2=
EXTT3=
EXTT4=
EXTT5=
EXTT6=
EXTT7=
EXTT8=
EXTT9=
EXTT10=
EXTT11=
EXTT12=
EXTT13=
PLAYORDER=
